# xmcd
#
# Track frame offsets: 
#        180
#        13941
#        29759
#        45025
#        66337
#        80633
#        100849
#        116921
#        135562
#        148611
#        165073
#        179985
#
# Disc length: 2580 seconds
#
# Revision: 0
# Processed by: cddbd v1.4PL0 Copyright (c) Steve Scherf et al.
# Submitted via: ExactAudioCopy v0.90a11
#
DISCID=a60a120c
DTITLE=Jimmy Gordon - Come On Over
DYEAR=1900
DGENRE=
TTITLE0=Come On Over
TTITLE1=Drinkin' Wine
TTITLE2=Call the Doctor
TTITLE3=On the Street
TTITLE4=Crazy Mixed Up World
TTITLE5=What Happened?
TTITLE6=Rock, Rock, Rock
TTITLE7=Run From Me
TTITLE8=A Better Place
TTITLE9=Walkin' Thru the Park
TTITLE10=Rose in the Garden
TTITLE11=Baby I Love You
EXTD=
EXTT0=
EXTT1=
EXTT2=
EXTT3=
EXTT4=
EXTT5=
EXTT6=
EXTT7=
EXTT8=
EXTT9=
EXTT10=
EXTT11=
PLAYORDER=
